<svg width="219" height="140" viewBox="0 0 219 140" fill="none" xmlns="http://www.w3.org/2000/svg">
<g filter="url(#filter0_i_18_80)">
<path d="M160.085 3.24707C177.062 3.24707 201.462 3.24707 218.625 2.69043C217.604 15.5859 217.233 28.667 217.233 34.9756C217.233 40.6348 217.419 45.9229 217.79 49.4482H213.43C207.028 17.4414 197.009 7.05078 179.289 7.05078H175.114V57.2119H144.87V7.05078H140.695C122.79 7.05078 112.956 17.3486 106.462 49.4482H102.102C102.473 45.9229 102.658 40.6348 102.658 34.9756C102.658 28.667 102.287 15.5859 101.359 2.69043C118.522 3.24707 143.107 3.24707 160.085 3.24707Z" fill="#363638"/>
<path d="M144.87 82.2119V115.503C144.87 130.996 141.438 133.223 124.553 133.408V137.212C132.067 136.934 145.241 136.655 159.25 136.655C173.259 136.655 187.36 136.934 195.432 137.212V133.408C178.547 133.223 175.114 130.996 175.114 115.503V82.2119H144.87Z" fill="#363638"/>
<path d="M7.7392 57.2119C13.12 22.4802 38.9053 0 73.96 0C90.6592 0 100.493 5.9375 108.843 12.3389C110.234 13.4521 111.533 14.0088 112.554 14.0088C115.244 14.0088 116.729 10.4834 117.471 2.69043H121.831C121.274 12.4316 121.089 25.5127 121.089 48.7061H116.636C114.595 31.2646 112.183 22.0801 102.349 14.2871C96.04 8.16406 87.3193 4.91699 78.3203 4.91699C54.6376 4.91699 43.5446 28.9075 41.0332 57.2119H7.7392Z" fill="#F3404B"/>
<path d="M7.32313 82.2119C11.563 118.87 37.0833 139.902 73.7744 139.902C90.1025 139.902 99.5654 134.15 108.843 127.563C110.42 126.543 111.719 125.986 112.832 125.986C115.522 125.986 116.729 129.419 117.471 137.212H121.831C121.274 127.1 121.089 113.462 121.089 89.3408H116.636C114.873 107.896 112.554 118.472 102.72 126.079C96.5967 132.202 87.4121 135.264 79.0625 135.264C55.0913 135.264 43.3852 111.239 40.9538 82.2119H7.32313Z" fill="#F3404B"/>
<path d="M8.22656 62.6143C6.34375 62.6143 4.85547 63.2432 3.76172 64.501C2.67578 65.751 2.13281 67.4658 2.13281 69.6455C2.13281 71.8877 2.65625 73.6221 3.70312 74.8486C4.75781 76.0674 6.25781 76.6768 8.20312 76.6768C9.39844 76.6768 10.7617 76.4619 12.293 76.0322V77.7783C11.1055 78.2236 9.64062 78.4463 7.89844 78.4463C5.375 78.4463 3.42578 77.6807 2.05078 76.1494C0.683594 74.6182 0 72.4424 0 69.6221C0 67.8564 0.328125 66.3096 0.984375 64.9814C1.64844 63.6533 2.60156 62.6299 3.84375 61.9111C5.09375 61.1924 6.5625 60.833 8.25 60.833C10.0469 60.833 11.6172 61.1611 12.9609 61.8174L12.1172 63.5283C10.8203 62.9189 9.52344 62.6143 8.22656 62.6143Z" fill="#363638"/>
<path d="M18.0234 71.0869V78.2119H16.0312V61.0791H20.7305C22.832 61.0791 24.3828 61.4814 25.3828 62.2861C26.3906 63.0908 26.8945 64.3018 26.8945 65.9189C26.8945 68.1846 25.7461 69.7158 23.4492 70.5127L28.1016 78.2119H25.7461L21.5977 71.0869H18.0234ZM18.0234 69.376H20.7539C22.1602 69.376 23.1914 69.0986 23.8477 68.5439C24.5039 67.9814 24.832 67.1416 24.832 66.0244C24.832 64.8916 24.4961 64.0752 23.8242 63.5752C23.1602 63.0752 22.0898 62.8252 20.6133 62.8252H18.0234V69.376Z" fill="#363638"/>
<path d="M40.418 78.2119H30.8672V61.0791H40.418V62.8486H32.8594V68.3682H39.9609V70.126H32.8594V76.4307H40.418V78.2119Z" fill="#363638"/>
<path d="M54.9961 78.2119L52.8633 72.7627H45.9961L43.8867 78.2119H41.8711L48.6445 61.0088H50.3203L57.0586 78.2119H54.9961ZM52.2422 70.9697L50.25 65.6611C49.9922 64.9893 49.7266 64.165 49.4531 63.1885C49.2812 63.9385 49.0352 64.7627 48.7148 65.6611L46.6992 70.9697H52.2422Z" fill="#363638"/>
<path d="M64.6875 78.2119H62.6953V62.8486H57.2695V61.0791H70.1133V62.8486H64.6875V78.2119Z" fill="#363638"/>
<path d="M72.7031 78.2119V61.0791H74.6953V78.2119H72.7031Z" fill="#363638"/>
<path d="M89.1914 61.0791H91.3359L85.1602 78.2119H83.1914L77.0508 61.0791H79.1602L83.0977 72.165C83.5508 73.4385 83.9102 74.6768 84.1758 75.8799C84.457 74.6143 84.8242 73.3525 85.2773 72.0947L89.1914 61.0791Z" fill="#363638"/>
<path d="M103.254 78.2119H93.7031V61.0791H103.254V62.8486H95.6953V68.3682H102.797V70.126H95.6953V76.4307H103.254V78.2119Z" fill="#363638"/>
<path d="M118.57 78.2119H116.578V62.8486H111.152V61.0791H123.996V62.8486H118.57V78.2119Z" fill="#D7444D"/>
<path d="M141.457 69.6221C141.457 72.3643 140.762 74.5205 139.371 76.0908C137.988 77.6611 136.062 78.4463 133.594 78.4463C131.07 78.4463 129.121 77.6768 127.746 76.1377C126.379 74.5908 125.695 72.4111 125.695 69.5986C125.695 66.8096 126.383 64.6494 127.758 63.1182C129.133 61.5791 131.086 60.8096 133.617 60.8096C136.078 60.8096 138 61.5908 139.383 63.1533C140.766 64.7158 141.457 66.8721 141.457 69.6221ZM127.805 69.6221C127.805 71.9424 128.297 73.7041 129.281 74.9072C130.273 76.1025 131.711 76.7002 133.594 76.7002C135.492 76.7002 136.926 76.1025 137.895 74.9072C138.863 73.7119 139.348 71.9502 139.348 69.6221C139.348 67.3174 138.863 65.5713 137.895 64.3838C136.934 63.1885 135.508 62.5908 133.617 62.5908C131.719 62.5908 130.273 63.1924 129.281 64.3955C128.297 65.5908 127.805 67.333 127.805 69.6221Z" fill="#D7444D"/>
<path d="M160.16 69.6221C160.16 72.3643 159.465 74.5205 158.074 76.0908C156.691 77.6611 154.766 78.4463 152.297 78.4463C149.773 78.4463 147.824 77.6768 146.449 76.1377C145.082 74.5908 144.398 72.4111 144.398 69.5986C144.398 66.8096 145.086 64.6494 146.461 63.1182C147.836 61.5791 149.789 60.8096 152.32 60.8096C154.781 60.8096 156.703 61.5908 158.086 63.1533C159.469 64.7158 160.16 66.8721 160.16 69.6221ZM146.508 69.6221C146.508 71.9424 147 73.7041 147.984 74.9072C148.977 76.1025 150.414 76.7002 152.297 76.7002C154.195 76.7002 155.629 76.1025 156.598 74.9072C157.566 73.7119 158.051 71.9502 158.051 69.6221C158.051 67.3174 157.566 65.5713 156.598 64.3838C155.637 63.1885 154.211 62.5908 152.32 62.5908C150.422 62.5908 148.977 63.1924 147.984 64.3955C147 65.5908 146.508 67.333 146.508 69.6221Z" fill="#D7444D"/>
<path d="M163.992 78.2119V61.0791H165.984V76.4072H173.543V78.2119H163.992Z" fill="#D7444D"/>
<path d="M186.129 73.6533C186.129 75.1611 185.582 76.3369 184.488 77.1807C183.395 78.0244 181.91 78.4463 180.035 78.4463C178.004 78.4463 176.441 78.1846 175.348 77.6611V75.7393C176.051 76.0361 176.816 76.2705 177.645 76.4424C178.473 76.6143 179.293 76.7002 180.105 76.7002C181.434 76.7002 182.434 76.4502 183.105 75.9502C183.777 75.4424 184.113 74.7393 184.113 73.8408C184.113 73.2471 183.992 72.7627 183.75 72.3877C183.516 72.0049 183.117 71.6533 182.555 71.333C182 71.0127 181.152 70.6494 180.012 70.2432C178.418 69.6729 177.277 68.9971 176.59 68.2158C175.91 67.4346 175.57 66.415 175.57 65.1572C175.57 63.8369 176.066 62.7861 177.059 62.0049C178.051 61.2236 179.363 60.833 180.996 60.833C182.699 60.833 184.266 61.1455 185.695 61.7705L185.074 63.5049C183.66 62.9111 182.285 62.6143 180.949 62.6143C179.895 62.6143 179.07 62.8408 178.477 63.2939C177.883 63.7471 177.586 64.376 177.586 65.1807C177.586 65.7744 177.695 66.2627 177.914 66.6455C178.133 67.0205 178.5 67.3682 179.016 67.6885C179.539 68.001 180.336 68.3486 181.406 68.7314C183.203 69.3721 184.438 70.0596 185.109 70.7939C185.789 71.5283 186.129 72.4814 186.129 73.6533Z" fill="#EA5A63"/>
</g>
<defs>
<filter id="filter0_i_18_80" x="-10" y="0" width="228.625" height="142.902" filterUnits="userSpaceOnUse" color-interpolation-filters="sRGB">
<feFlood flood-opacity="0" result="BackgroundImageFix"/>
<feBlend mode="normal" in="SourceGraphic" in2="BackgroundImageFix" result="shape"/>
<feColorMatrix in="SourceAlpha" type="matrix" values="0 0 0 0 0 0 0 0 0 0 0 0 0 0 0 0 0 0 127 0" result="hardAlpha"/>
<feOffset dx="-83" dy="3"/>
<feGaussianBlur stdDeviation="5"/>
<feComposite in2="hardAlpha" operator="arithmetic" k2="-1" k3="1"/>
<feColorMatrix type="matrix" values="0 0 0 0 0 0 0 0 0 0 0 0 0 0 0 0 0 0 0.26 0"/>
<feBlend mode="normal" in2="shape" result="effect1_innerShadow_18_80"/>
</filter>
</defs>
</svg>
