<svg width="73" height="46" viewBox="0 0 73 46" fill="none" xmlns="http://www.w3.org/2000/svg">
<g filter="url(#filter0_i_18_76)">
<path d="M53.249 1.05957C58.7891 1.05957 66.751 1.05957 72.3516 0.87793C72.0186 5.08594 71.8975 9.35449 71.8975 11.4131C71.8975 13.2598 71.958 14.9854 72.0791 16.1357H70.6562C68.5674 5.69141 65.2979 2.30078 59.5156 2.30078H58.1533V18.7744H48.2842V2.30078H46.9219C41.0791 2.30078 37.8701 5.66113 35.751 16.1357H34.3281C34.4492 14.9854 34.5098 13.2598 34.5098 11.4131C34.5098 9.35449 34.3887 5.08594 34.0859 0.87793C39.6865 1.05957 47.709 1.05957 53.249 1.05957Z" fill="#363638"/>
<path d="M48.2842 29.7744V37.6904C48.2842 42.7461 47.1641 43.4727 41.6543 43.5332V44.7744C44.1064 44.6836 48.4053 44.5928 52.9766 44.5928C57.5479 44.5928 62.1494 44.6836 64.7832 44.7744V43.5332C59.2734 43.4727 58.1533 42.7461 58.1533 37.6904V29.7744H48.2842Z" fill="#363638"/>
<path d="M2.49905 18.7744C4.21898 7.38108 12.6497 0 24.124 0C29.5732 0 32.7822 1.9375 35.5068 4.02637C35.9609 4.38965 36.3848 4.57129 36.7178 4.57129C37.5957 4.57129 38.0801 3.4209 38.3223 0.87793H39.7451C39.5635 4.05664 39.5029 8.3252 39.5029 15.8936H38.0498C37.3838 10.2021 36.5967 7.20508 33.3877 4.66211C31.3291 2.66406 28.4834 1.60449 25.5469 1.60449C17.7895 1.60449 14.1716 9.49254 13.3703 18.7744H2.49905Z" fill="#F3404B"/>
<path d="M2.88264 29.7744C5.20943 39.9096 13.1114 45.6523 24.0635 45.6523C29.3916 45.6523 32.4795 43.7754 35.5068 41.626C36.0215 41.293 36.4453 41.1113 36.8086 41.1113C37.6865 41.1113 38.0801 42.2314 38.3223 44.7744H39.7451C39.5683 41.5624 39.5062 37.2604 39.5031 29.7744H37.9892C37.4191 35.4464 36.6064 38.7453 33.5088 41.1416C31.5107 43.1396 28.5137 44.1387 25.7891 44.1387C18.7954 44.1387 15.0011 37.8717 13.7087 29.7744H2.88264Z" fill="#F3404B"/>
<path d="M2.74219 21.5752C2.11458 21.5752 1.61849 21.7848 1.25391 22.2041C0.891927 22.6208 0.710938 23.1924 0.710938 23.9189C0.710938 24.6663 0.885417 25.2445 1.23438 25.6533C1.58594 26.0596 2.08594 26.2627 2.73438 26.2627C3.13281 26.2627 3.58724 26.1911 4.09766 26.0479V26.6299C3.70182 26.7783 3.21354 26.8525 2.63281 26.8525C1.79167 26.8525 1.14193 26.5973 0.683594 26.0869C0.227865 25.5765 0 24.8512 0 23.9111C0 23.3226 0.109375 22.807 0.328125 22.3643C0.549479 21.9215 0.867188 21.5804 1.28125 21.3408C1.69792 21.1012 2.1875 20.9814 2.75 20.9814C3.34896 20.9814 3.8724 21.0908 4.32031 21.3096L4.03906 21.8799C3.60677 21.6768 3.17448 21.5752 2.74219 21.5752Z" fill="#363638"/>
<path d="M6.00781 24.3994V26.7744H5.34375V21.0635H6.91016C7.61068 21.0635 8.1276 21.1976 8.46094 21.4658C8.79688 21.734 8.96484 22.1377 8.96484 22.6768C8.96484 23.432 8.58203 23.9424 7.81641 24.208L9.36719 26.7744H8.58203L7.19922 24.3994H6.00781ZM6.00781 23.8291H6.91797C7.38672 23.8291 7.73047 23.7367 7.94922 23.5518C8.16797 23.3643 8.27734 23.0843 8.27734 22.7119C8.27734 22.3343 8.16536 22.0622 7.94141 21.8955C7.72005 21.7288 7.36328 21.6455 6.87109 21.6455H6.00781V23.8291Z" fill="#363638"/>
<path d="M13.4727 26.7744H10.2891V21.0635H13.4727V21.6533H10.9531V23.4932H13.3203V24.0791H10.9531V26.1807H13.4727V26.7744Z" fill="#363638"/>
<path d="M18.332 26.7744L17.6211 24.958H15.332L14.6289 26.7744H13.957L16.2148 21.04H16.7734L19.0195 26.7744H18.332ZM17.4141 24.3604L16.75 22.5908C16.6641 22.3669 16.5755 22.0921 16.4844 21.7666C16.4271 22.0166 16.3451 22.2913 16.2383 22.5908L15.5664 24.3604H17.4141Z" fill="#363638"/>
<path d="M21.5625 26.7744H20.8984V21.6533H19.0898V21.0635H23.3711V21.6533H21.5625V26.7744Z" fill="#363638"/>
<path d="M24.2344 26.7744V21.0635H24.8984V26.7744H24.2344Z" fill="#363638"/>
<path d="M29.7305 21.0635H30.4453L28.3867 26.7744H27.7305L25.6836 21.0635H26.3867L27.6992 24.7588C27.8503 25.1833 27.9701 25.596 28.0586 25.9971C28.1523 25.5752 28.2747 25.1546 28.4258 24.7354L29.7305 21.0635Z" fill="#363638"/>
<path d="M34.418 26.7744H31.2344V21.0635H34.418V21.6533H31.8984V23.4932H34.2656V24.0791H31.8984V26.1807H34.418V26.7744Z" fill="#363638"/>
<path d="M39.5234 26.7744H38.8594V21.6533H37.0508V21.0635H41.332V21.6533H39.5234V26.7744Z" fill="#E73E49"/>
<path d="M47.1523 23.9111C47.1523 24.8252 46.9206 25.5439 46.457 26.0674C45.9961 26.5908 45.3542 26.8525 44.5312 26.8525C43.6901 26.8525 43.0404 26.596 42.582 26.083C42.1263 25.5674 41.8984 24.8408 41.8984 23.9033C41.8984 22.9736 42.1276 22.2536 42.5859 21.7432C43.0443 21.2301 43.6953 20.9736 44.5391 20.9736C45.3594 20.9736 46 21.234 46.4609 21.7549C46.9219 22.2757 47.1523 22.9945 47.1523 23.9111ZM42.6016 23.9111C42.6016 24.6846 42.7656 25.2718 43.0938 25.6729C43.4245 26.0713 43.9036 26.2705 44.5312 26.2705C45.1641 26.2705 45.6419 26.0713 45.9648 25.6729C46.2878 25.2744 46.4492 24.6872 46.4492 23.9111C46.4492 23.1429 46.2878 22.5609 45.9648 22.165C45.6445 21.7666 45.1693 21.5674 44.5391 21.5674C43.9062 21.5674 43.4245 21.7679 43.0938 22.1689C42.7656 22.5674 42.6016 23.1481 42.6016 23.9111Z" fill="#E73E49"/>
<path d="M53.3867 23.9111C53.3867 24.8252 53.1549 25.5439 52.6914 26.0674C52.2305 26.5908 51.5885 26.8525 50.7656 26.8525C49.9245 26.8525 49.2747 26.596 48.8164 26.083C48.3607 25.5674 48.1328 24.8408 48.1328 23.9033C48.1328 22.9736 48.362 22.2536 48.8203 21.7432C49.2786 21.2301 49.9297 20.9736 50.7734 20.9736C51.5938 20.9736 52.2344 21.234 52.6953 21.7549C53.1562 22.2757 53.3867 22.9945 53.3867 23.9111ZM48.8359 23.9111C48.8359 24.6846 49 25.2718 49.3281 25.6729C49.6589 26.0713 50.138 26.2705 50.7656 26.2705C51.3984 26.2705 51.8763 26.0713 52.1992 25.6729C52.5221 25.2744 52.6836 24.6872 52.6836 23.9111C52.6836 23.1429 52.5221 22.5609 52.1992 22.165C51.8789 21.7666 51.4036 21.5674 50.7734 21.5674C50.1406 21.5674 49.6589 21.7679 49.3281 22.1689C49 22.5674 48.8359 23.1481 48.8359 23.9111Z" fill="#E73E49"/>
<path d="M54.6641 26.7744V21.0635H55.3281V26.1729H57.8477V26.7744H54.6641Z" fill="#E73E49"/>
<path d="M62.043 25.2549C62.043 25.7575 61.8607 26.1494 61.4961 26.4307C61.1315 26.7119 60.6367 26.8525 60.0117 26.8525C59.3346 26.8525 58.8138 26.7653 58.4492 26.5908V25.9502C58.6836 26.0492 58.9388 26.1273 59.2148 26.1846C59.4909 26.2419 59.7643 26.2705 60.0352 26.2705C60.4779 26.2705 60.8112 26.1872 61.0352 26.0205C61.2591 25.8512 61.3711 25.6169 61.3711 25.3174C61.3711 25.1195 61.3307 24.958 61.25 24.833C61.1719 24.7054 61.0391 24.5882 60.8516 24.4814C60.6667 24.3747 60.3841 24.2536 60.0039 24.1182C59.4727 23.9281 59.0924 23.7028 58.8633 23.4424C58.6367 23.182 58.5234 22.8421 58.5234 22.4229C58.5234 21.9827 58.6888 21.6325 59.0195 21.3721C59.3503 21.1117 59.7878 20.9814 60.332 20.9814C60.8997 20.9814 61.4219 21.0856 61.8984 21.2939L61.6914 21.8721C61.2201 21.6742 60.7617 21.5752 60.3164 21.5752C59.9648 21.5752 59.6901 21.6507 59.4922 21.8018C59.2943 21.9528 59.1953 22.1624 59.1953 22.4307C59.1953 22.6286 59.2318 22.7913 59.3047 22.9189C59.3776 23.0439 59.5 23.1598 59.6719 23.2666C59.8464 23.3708 60.112 23.4867 60.4688 23.6143C61.0677 23.8278 61.4792 24.057 61.7031 24.3018C61.9297 24.5465 62.043 24.8643 62.043 25.2549Z" fill="#D7444D"/>
</g>
<defs>
<filter id="filter0_i_18_76" x="-6" y="0" width="78.3516" height="50.6523" filterUnits="userSpaceOnUse" color-interpolation-filters="sRGB">
<feFlood flood-opacity="0" result="BackgroundImageFix"/>
<feBlend mode="normal" in="SourceGraphic" in2="BackgroundImageFix" result="shape"/>
<feColorMatrix in="SourceAlpha" type="matrix" values="0 0 0 0 0 0 0 0 0 0 0 0 0 0 0 0 0 0 127 0" result="hardAlpha"/>
<feOffset dx="-24" dy="5"/>
<feGaussianBlur stdDeviation="3"/>
<feComposite in2="hardAlpha" operator="arithmetic" k2="-1" k3="1"/>
<feColorMatrix type="matrix" values="0 0 0 0 0 0 0 0 0 0 0 0 0 0 0 0 0 0 0.25 0"/>
<feBlend mode="normal" in2="shape" result="effect1_innerShadow_18_76"/>
</filter>
</defs>
</svg>
